<svg width="934" height="101" viewBox="0 0 934 101" fill="none" xmlns="http://www.w3.org/2000/svg">
<circle cx="395" cy="51" r="50" fill="black"/>
<path d="M0 52.5C0 48.9101 2.91015 46 6.5 46H343.5C347.09 46 350 48.9101 350 52.5V52.5C350 56.0899 347.09 59 343.5 59H6.5C2.91015 59 0 56.0899 0 52.5V52.5Z" fill="black"/>
<path d="M0 52.5C0 48.9101 2.91015 46 6.5 46H343.5C347.09 46 350 48.9101 350 52.5C350 56.0899 347.09 59 343.5 59H6.5C2.91015 59 0 56.0899 0 52.5Z" fill="black"/>
<circle cx="539" cy="50" r="50" fill="black"/>
<path d="M584 49.5C584 45.9101 586.91 43 590.5 43H927.5C931.09 43 934 45.9101 934 49.5V49.5C934 53.0899 931.09 56 927.5 56H590.5C586.91 56 584 53.0899 584 49.5V49.5Z" fill="black"/>
<path d="M584 49.5C584 45.9101 586.91 43 590.5 43H927.5C931.09 43 934 45.9101 934 49.5C934 53.0899 931.09 56 927.5 56H590.5C586.91 56 584 53.0899 584 49.5Z" fill="black"/>
</svg>
